# xmcd
#
# Track frame offsets: 
#        150
#        18807
#        34787
#        58946
#        78736
#
# Disc length: 1319 seconds
#
# Revision: 0
# Processed by: cddbd v1.5.1PL2 Copyright (c) Steve Scherf et al.
# Submitted via: ExactAudioCopy v0.95b2
#
DISCID=38052505
DTITLE=The Risktaker - Bob Le Flambeur
DYEAR=2006
DGENRE=Country
TTITLE0=Vigilante
TTITLE1=Quagmire
TTITLE2=Gaza Strip Club
TTITLE3=Flora Robson (Was The Only One Who Gave Head)
TTITLE4=Under Fire
EXTD=
EXTT0=
EXTT1=
EXTT2=
EXTT3=
EXTT4=
PLAYORDER=
